<svg xmlns="http://www.w3.org/2000/svg" viewBox="0 0 800 800">
  <path fill="#13334c" d="M666.67,177.5H133.33V400H273.54a11.08,11.08,0,0,1,9.93,6.15l27.64,55.34,69-138.2a22.21,22.21,0,0,1,39.75,0L458.18,400h97.38a22.25,22.25,0,0,1,0,44.5H430.71L400,383l-69,138.2a22.21,22.21,0,0,1-39.75,0L252.93,444.5H133.33v178H666.67ZM733.33,44H66.67A66.71,66.71,0,0,0,0,110.75v578.5A66.71,66.71,0,0,0,66.67,756H733.33A66.71,66.71,0,0,0,800,689.25V110.75A66.71,66.71,0,0,0,733.33,44ZM711.11,667H88.89V133H711.11Z"/>
</svg>
