<?xml version="1.0" encoding="UTF-8"?>
<svg viewBox="0 0 900 900" version="1.1" xmlns="http://www.w3.org/2000/svg" xmlns:xlink="http://www.w3.org/1999/xlink">
  <g fill="none" fill-rule="evenodd">
    <rect ix="0" y="0" width="900" height="900"></rect>
    <g transform="translate(0.000000, 50.000000)">
      <path d="M683.06593,682.61932 C755.320506,610.251277 800,510.343366 800,400 C800,289.429466 755.13635,189.337399 682.61932,116.93407 L753.330016,46.2233748 C843.894478,136.674221 899.939364,261.679949 899.999951,399.775837 C899.943413,527.66283 851.127892,655.532279 753.553391,753.106781 L683.06593,682.61932 Z" fill="#E5422B"></path>
      <path d="M682.61932,116.93407 L611.908613,187.644778 C557.637036,133.486629 482.729129,100 400,100 C234.314575,100 100,234.314575 100,400 C100,565.685425 234.314575,700 400,700 C482.956296,700 558.048359,666.329215 612.355222,611.908613 L683.06593,682.61932 C610.662601,755.13635 510.570534,800 400,800 C179.0861,800 0,620.9139 0,400 C0,179.0861 179.0861,0 400,0 C510.343366,0 610.251277,44.6794945 682.61932,116.93407 Z" fill="#2F353E"></path>
      <path d="M541.644486,541.197876 C577.706221,505.022791 600,455.114891 600,400 C600,344.657941 577.522065,294.565885 541.197876,258.355514 L611.908613,187.644778 C666.329215,241.951641 700,317.043704 700,400 C700,482.729129 666.513371,557.637036 612.355222,611.908613 L541.644486,541.197876 Z" fill="#E5422B"></path>
      <path d="M541.197876,258.355514 L470.487023,329.066368 C452.408531,311.100993 427.500654,300 400,300 C344.771525,300 300,344.771525 300,400 C300,455.228475 344.771525,500 400,500 C427.727821,500 452.819855,488.714851 470.933632,470.487023 L541.644486,541.197876 C505.434115,577.522065 455.342059,600 400,600 C289.54305,600 200,510.45695 200,400 C200,289.54305 289.54305,200 400,200 C455.114891,200 505.022791,222.293779 541.197876,258.355514 Z" fill="#2F353E"></path>
    </g>
  </g>
</svg>
